<?xml version="1.0" encoding="utf-8"?>
<svg version="1.1" xmlns:xlink="http://www.w3.org/1999/xlink" width="12px" height="12px" viewBox="253 89.5  12 12" xmlns="http://www.w3.org/2000/svg">
  <path d="M 259 89.5  C 262.36 89.5  265 92.14  265 95.5  C 265 98.86  262.36 101.5  259 101.5  C 255.64 101.5  253 98.86  253 95.5  C 253 92.14  255.64 89.5  259 89.5  Z " fill-rule="nonzero" fill="#ffffff" stroke="none" />
  <path d="M 259 90  C 262.08 90  264.5 92.42  264.5 95.5  C 264.5 98.58  262.08 101  259 101  C 255.92 101  253.5 98.58  253.5 95.5  C 253.5 92.42  255.92 90  259 90  Z " stroke-width="1" stroke="#d9001b" fill="none" />
  <path d="M 259 98.5  C 257.32 98.5  256 97.18  256 95.5  C 256 93.82  257.32 92.5  259 92.5  C 260.68 92.5  262 93.82  262 95.5  C 262 97.18  260.68 98.5  259 98.5  " fill-rule="nonzero" fill="#d9001b" stroke="none" />
</svg>