<?xml version="1.0" encoding="utf-8"?>
<svg version="1.1" xmlns:xlink="http://www.w3.org/1999/xlink" width="33px" height="21px" xmlns="http://www.w3.org/2000/svg">
  <defs>
    <mask fill="white" id="clip5">
      <path d="M 24.5013950892857 16.4518229166667  C 26.962890625 14.9752604166667  29.0100446428571 12.9913194444444  30.6428571428571 10.5  C 28.7767857142857 7.63194444444444  26.4380580357143 5.48697916666667  23.6266741071429 4.06510416666667  C 24.3755580357143 5.32899305555555  24.75 6.69618055555555  24.75 8.16666666666667  C 24.75 10.4149305555556  23.9428013392857 12.3381076388889  22.3284040178571 13.9361979166667  C 20.7140066964286 15.5342881944444  18.7712053571429 16.3333333333333  16.5 16.3333333333333  C 14.2287946428571 16.3333333333333  12.2859933035714 15.5342881944444  10.6715959821429 13.9361979166667  C 9.05719866071429 12.3381076388889  8.25 10.4149305555556  8.25 8.16666666666667  C 8.25 6.69618055555555  8.62444196428572 5.32899305555555  9.37332589285714 4.06510416666667  C 6.56194196428572 5.48697916666667  4.22321428571429 7.63194444444444  2.35714285714286 10.5  C 3.98995535714286 12.9913194444444  6.037109375 14.9752604166667  8.49860491071429 16.4518229166667  C 10.9601004464286 17.9283854166667  13.6272321428571 18.6666666666667  16.5 18.6666666666667  C 19.3727678571429 18.6666666666667  22.0398995535714 17.9283854166667  24.5013950892857 16.4518229166667  Z M 17.1261160714286 4.11979166666667  C 17.2979910714286 3.94965277777778  17.3839285714286 3.74305555555555  17.3839285714286 3.5  C 17.3839285714286 3.25694444444444  17.2979910714286 3.05034722222222  17.1261160714286 2.88020833333333  C 16.9542410714286 2.71006944444444  16.7455357142857 2.625  16.5 2.625  C 14.9654017857143 2.625  13.6487165178571 3.16883680555555  12.5499441964286 4.25651041666667  C 11.451171875 5.34418402777778  10.9017857142857 6.64756944444444  10.9017857142857 8.16666666666667  C 10.9017857142857 8.40972222222222  10.9877232142857 8.61631944444444  11.1595982142857 8.78645833333333  C 11.3314732142857 8.95659722222222  11.5401785714286 9.04166666666667  11.7857142857143 9.04166666666667  C 12.03125 9.04166666666667  12.2399553571429 8.95659722222222  12.4118303571429 8.78645833333333  C 12.5837053571429 8.61631944444444  12.6696428571429 8.40972222222222  12.6696428571429 8.16666666666667  C 12.6696428571429 7.12152777777778  13.0440848214286 6.22829861111111  13.79296875 5.48697916666667  C 14.5418526785714 4.74565972222222  15.4441964285714 4.375  16.5 4.375  C 16.7455357142857 4.375  16.9542410714286 4.28993055555555  17.1261160714286 4.11979166666667  Z M 32.6316964285714 9.2421875  C 32.8772321428571 9.66753472222222  33 10.0868055555556  33 10.5  C 33 10.9131944444444  32.8772321428571 11.3324652777778  32.6316964285714 11.7578125  C 30.9129464285714 14.5529513888889  28.6018415178571 16.7921006944444  25.6983816964286 18.4752604166667  C 22.794921875 20.1584201388889  19.7287946428571 21  16.5 21  C 13.2712053571429 21  10.205078125 20.1553819444444  7.30161830357143 18.4661458333333  C 4.39815848214286 16.7769097222222  2.08705357142857 14.5407986111111  0.368303571428571 11.7578125  C 0.122767857142857 11.3324652777778  0 10.9131944444444  0 10.5  C 0 10.0868055555556  0.122767857142857 9.66753472222222  0.368303571428571 9.2421875  C 2.08705357142857 6.45920138888889  4.39815848214286 4.22309027777778  7.30161830357143 2.53385416666667  C 10.205078125 0.844618055555554  13.2712053571429 0  16.5 0  C 19.7287946428571 0  22.794921875 0.844618055555554  25.6983816964286 2.53385416666667  C 28.6018415178571 4.22309027777778  30.9129464285714 6.45920138888889  32.6316964285714 9.2421875  Z " fill-rule="evenodd" />
    </mask>
  </defs>
  <g transform="matrix(1 0 0 1 -1023 -209 )">
    <path d="M 24.5013950892857 16.4518229166667  C 26.962890625 14.9752604166667  29.0100446428571 12.9913194444444  30.6428571428571 10.5  C 28.7767857142857 7.63194444444444  26.4380580357143 5.48697916666667  23.6266741071429 4.06510416666667  C 24.3755580357143 5.32899305555555  24.75 6.69618055555555  24.75 8.16666666666667  C 24.75 10.4149305555556  23.9428013392857 12.3381076388889  22.3284040178571 13.9361979166667  C 20.7140066964286 15.5342881944444  18.7712053571429 16.3333333333333  16.5 16.3333333333333  C 14.2287946428571 16.3333333333333  12.2859933035714 15.5342881944444  10.6715959821429 13.9361979166667  C 9.05719866071429 12.3381076388889  8.25 10.4149305555556  8.25 8.16666666666667  C 8.25 6.69618055555555  8.62444196428572 5.32899305555555  9.37332589285714 4.06510416666667  C 6.56194196428572 5.48697916666667  4.22321428571429 7.63194444444444  2.35714285714286 10.5  C 3.98995535714286 12.9913194444444  6.037109375 14.9752604166667  8.49860491071429 16.4518229166667  C 10.9601004464286 17.9283854166667  13.6272321428571 18.6666666666667  16.5 18.6666666666667  C 19.3727678571429 18.6666666666667  22.0398995535714 17.9283854166667  24.5013950892857 16.4518229166667  Z M 17.1261160714286 4.11979166666667  C 17.2979910714286 3.94965277777778  17.3839285714286 3.74305555555555  17.3839285714286 3.5  C 17.3839285714286 3.25694444444444  17.2979910714286 3.05034722222222  17.1261160714286 2.88020833333333  C 16.9542410714286 2.71006944444444  16.7455357142857 2.625  16.5 2.625  C 14.9654017857143 2.625  13.6487165178571 3.16883680555555  12.5499441964286 4.25651041666667  C 11.451171875 5.34418402777778  10.9017857142857 6.64756944444444  10.9017857142857 8.16666666666667  C 10.9017857142857 8.40972222222222  10.9877232142857 8.61631944444444  11.1595982142857 8.78645833333333  C 11.3314732142857 8.95659722222222  11.5401785714286 9.04166666666667  11.7857142857143 9.04166666666667  C 12.03125 9.04166666666667  12.2399553571429 8.95659722222222  12.4118303571429 8.78645833333333  C 12.5837053571429 8.61631944444444  12.6696428571429 8.40972222222222  12.6696428571429 8.16666666666667  C 12.6696428571429 7.12152777777778  13.0440848214286 6.22829861111111  13.79296875 5.48697916666667  C 14.5418526785714 4.74565972222222  15.4441964285714 4.375  16.5 4.375  C 16.7455357142857 4.375  16.9542410714286 4.28993055555555  17.1261160714286 4.11979166666667  Z M 32.6316964285714 9.2421875  C 32.8772321428571 9.66753472222222  33 10.0868055555556  33 10.5  C 33 10.9131944444444  32.8772321428571 11.3324652777778  32.6316964285714 11.7578125  C 30.9129464285714 14.5529513888889  28.6018415178571 16.7921006944444  25.6983816964286 18.4752604166667  C 22.794921875 20.1584201388889  19.7287946428571 21  16.5 21  C 13.2712053571429 21  10.205078125 20.1553819444444  7.30161830357143 18.4661458333333  C 4.39815848214286 16.7769097222222  2.08705357142857 14.5407986111111  0.368303571428571 11.7578125  C 0.122767857142857 11.3324652777778  0 10.9131944444444  0 10.5  C 0 10.0868055555556  0.122767857142857 9.66753472222222  0.368303571428571 9.2421875  C 2.08705357142857 6.45920138888889  4.39815848214286 4.22309027777778  7.30161830357143 2.53385416666667  C 10.205078125 0.844618055555554  13.2712053571429 0  16.5 0  C 19.7287946428571 0  22.794921875 0.844618055555554  25.6983816964286 2.53385416666667  C 28.6018415178571 4.22309027777778  30.9129464285714 6.45920138888889  32.6316964285714 9.2421875  Z " fill-rule="nonzero" fill="#000000" stroke="none" transform="matrix(1 0 0 1 1023 209 )" />
    <path d="M 24.5013950892857 16.4518229166667  C 26.962890625 14.9752604166667  29.0100446428571 12.9913194444444  30.6428571428571 10.5  C 28.7767857142857 7.63194444444444  26.4380580357143 5.48697916666667  23.6266741071429 4.06510416666667  C 24.3755580357143 5.32899305555555  24.75 6.69618055555555  24.75 8.16666666666667  C 24.75 10.4149305555556  23.9428013392857 12.3381076388889  22.3284040178571 13.9361979166667  C 20.7140066964286 15.5342881944444  18.7712053571429 16.3333333333333  16.5 16.3333333333333  C 14.2287946428571 16.3333333333333  12.2859933035714 15.5342881944444  10.6715959821429 13.9361979166667  C 9.05719866071429 12.3381076388889  8.25 10.4149305555556  8.25 8.16666666666667  C 8.25 6.69618055555555  8.62444196428572 5.32899305555555  9.37332589285714 4.06510416666667  C 6.56194196428572 5.48697916666667  4.22321428571429 7.63194444444444  2.35714285714286 10.5  C 3.98995535714286 12.9913194444444  6.037109375 14.9752604166667  8.49860491071429 16.4518229166667  C 10.9601004464286 17.9283854166667  13.6272321428571 18.6666666666667  16.5 18.6666666666667  C 19.3727678571429 18.6666666666667  22.0398995535714 17.9283854166667  24.5013950892857 16.4518229166667  Z " stroke-width="2" stroke="#d9001b" fill="none" transform="matrix(1 0 0 1 1023 209 )" mask="url(#clip5)" />
    <path d="M 17.1261160714286 4.11979166666667  C 17.2979910714286 3.94965277777778  17.3839285714286 3.74305555555555  17.3839285714286 3.5  C 17.3839285714286 3.25694444444444  17.2979910714286 3.05034722222222  17.1261160714286 2.88020833333333  C 16.9542410714286 2.71006944444444  16.7455357142857 2.625  16.5 2.625  C 14.9654017857143 2.625  13.6487165178571 3.16883680555555  12.5499441964286 4.25651041666667  C 11.451171875 5.34418402777778  10.9017857142857 6.64756944444444  10.9017857142857 8.16666666666667  C 10.9017857142857 8.40972222222222  10.9877232142857 8.61631944444444  11.1595982142857 8.78645833333333  C 11.3314732142857 8.95659722222222  11.5401785714286 9.04166666666667  11.7857142857143 9.04166666666667  C 12.03125 9.04166666666667  12.2399553571429 8.95659722222222  12.4118303571429 8.78645833333333  C 12.5837053571429 8.61631944444444  12.6696428571429 8.40972222222222  12.6696428571429 8.16666666666667  C 12.6696428571429 7.12152777777778  13.0440848214286 6.22829861111111  13.79296875 5.48697916666667  C 14.5418526785714 4.74565972222222  15.4441964285714 4.375  16.5 4.375  C 16.7455357142857 4.375  16.9542410714286 4.28993055555555  17.1261160714286 4.11979166666667  Z " stroke-width="2" stroke="#d9001b" fill="none" transform="matrix(1 0 0 1 1023 209 )" mask="url(#clip5)" />
    <path d="M 32.6316964285714 9.2421875  C 32.8772321428571 9.66753472222222  33 10.0868055555556  33 10.5  C 33 10.9131944444444  32.8772321428571 11.3324652777778  32.6316964285714 11.7578125  C 30.9129464285714 14.5529513888889  28.6018415178571 16.7921006944444  25.6983816964286 18.4752604166667  C 22.794921875 20.1584201388889  19.7287946428571 21  16.5 21  C 13.2712053571429 21  10.205078125 20.1553819444444  7.30161830357143 18.4661458333333  C 4.39815848214286 16.7769097222222  2.08705357142857 14.5407986111111  0.368303571428571 11.7578125  C 0.122767857142857 11.3324652777778  0 10.9131944444444  0 10.5  C 0 10.0868055555556  0.122767857142857 9.66753472222222  0.368303571428571 9.2421875  C 2.08705357142857 6.45920138888889  4.39815848214286 4.22309027777778  7.30161830357143 2.53385416666667  C 10.205078125 0.844618055555554  13.2712053571429 0  16.5 0  C 19.7287946428571 0  22.794921875 0.844618055555554  25.6983816964286 2.53385416666667  C 28.6018415178571 4.22309027777778  30.9129464285714 6.45920138888889  32.6316964285714 9.2421875  Z " stroke-width="2" stroke="#d9001b" fill="none" transform="matrix(1 0 0 1 1023 209 )" mask="url(#clip5)" />
  </g>
</svg>