<?xml version="1.0" encoding="utf-8"?>
<svg version="1.1" xmlns:xlink="http://www.w3.org/1999/xlink" width="31px" height="24px" xmlns="http://www.w3.org/2000/svg">
  <g transform="matrix(1 0 0 1 -950 -204 )">
    <path d="M 14.457399103139 18  L 15.4304932735426 18  L 17.4461883408072 16.0227272727273  L 14.804932735426 13.4318181818182  L 12.7892376681614 15.4090909090909  L 12.7892376681614 16.3636363636364  L 14.457399103139 16.3636363636364  L 14.457399103139 18  Z M 23.0588565022422 6.28977272727273  C 23.2557922272048 6.09659090909091  23.2615844544096 5.90909090909091  23.0762331838565 5.72727272727273  C 22.8908819133034 5.54545454545454  22.6997384155456 5.55113636363636  22.502802690583 5.74431818181818  L 16.4209641255605 11.7102272727273  C 16.2240284005979 11.9034090909091  16.2182361733931 12.0909090909091  16.4035874439462 12.2727272727273  C 16.5889387144993 12.4545454545455  16.7800822122571 12.4488636363636  16.9770179372197 12.2556818181818  L 23.0588565022422 6.28977272727273  Z M 24.1188340807175 15.3579545454545  C 24.3505231689088 15.4488636363636  24.4663677130045 15.6136363636364  24.4663677130045 15.8522727272727  L 24.4663677130045 19.0909090909091  C 24.4663677130045 20.4431818181818  23.9769245142003 21.5994318181818  22.9980381165919 22.5596590909091  C 22.0191517189836 23.5198863636364  20.8404334828102 24  19.4618834080717 24  L 5.00448430493274 24  C 3.62593423019432 24  2.44721599402093 23.5198863636364  1.46832959641256 22.5596590909091  C 0.489443198804185 21.5994318181818  0 20.4431818181818  0 19.0909090909091  L 0 4.90909090909091  C 0 3.55681818181818  0.489443198804185 2.40056818181818  1.46832959641256 1.44034090909091  C 2.44721599402093 0.480113636363634  3.62593423019432 0  5.00448430493274 0  L 19.4618834080717 0  C 20.1917040358744 0  20.8693946188341 0.142045454545453  21.4949551569507 0.426136363636362  C 21.6687219730942 0.505681818181817  21.7729820627803 0.636363636363636  21.807735426009 0.818181818181817  C 21.8424887892377 1.01136363636364  21.7903587443946 1.17613636363636  21.6513452914798 1.3125  L 20.7998878923767 2.14772727272727  C 20.6377055306428 2.30681818181818  20.4523542600897 2.35227272727273  20.2438340807175 2.28409090909091  C 19.9773916292975 2.21590909090909  19.7167414050822 2.18181818181818  19.4618834080717 2.18181818181818  L 5.00448430493274 2.18181818181818  C 4.23991031390135 2.18181818181818  3.58538863976084 2.44886363636363  3.04091928251121 2.98295454545455  C 2.49644992526158 3.51704545454545  2.22421524663677 4.15909090909091  2.22421524663677 4.90909090909091  L 2.22421524663677 19.0909090909091  C 2.22421524663677 19.8409090909091  2.49644992526158 20.4829545454545  3.04091928251121 21.0170454545455  C 3.58538863976084 21.5511363636364  4.23991031390135 21.8181818181818  5.00448430493274 21.8181818181818  L 19.4618834080717 21.8181818181818  C 20.2264573991031 21.8181818181818  20.8809790732436 21.5511363636364  21.4254484304933 21.0170454545455  C 21.9699177877429 20.4829545454545  22.2421524663677 19.8409090909091  22.2421524663677 19.0909090909091  L 22.2421524663677 16.9431818181818  C 22.2421524663677 16.7954545454545  22.2942825112108 16.6704545454545  22.3985426008969 16.5681818181818  L 23.5106502242152 15.4772727272727  C 23.6844170403587 15.3068181818182  23.8871449925262 15.2670454545455  24.1188340807175 15.3579545454545  Z M 11.1210762331839 14.7272727272727  L 22.7982062780269 3.27272727272727  L 27.8026905829596 8.18181818181818  L 16.1255605381166 19.6363636363636  L 11.1210762331839 19.6363636363636  L 11.1210762331839 14.7272727272727  Z M 31 4.36363636363636  C 31 4.81818181818182  30.8378176382661 5.20454545454545  30.5134529147982 5.52272727272727  L 28.914798206278 7.09090909090909  L 23.9103139013453 2.18181818181818  L 25.5089686098655 0.613636363636362  C 25.8333333333333 0.295454545454543  26.2272047832586 0.136363636363638  26.6905829596413 0.136363636363638  C 27.1539611360239 0.136363636363638  27.5478325859492 0.295454545454543  27.872197309417 0.613636363636362  L 30.5134529147982 3.20454545454546  C 30.8378176382661 3.52272727272727  31 3.90909090909091  31 4.36363636363636  Z " fill-rule="nonzero" fill="#000000" stroke="none" transform="matrix(1 0 0 1 950 204 )" />
  </g>
</svg>